<svg xmlns="http://www.w3.org/2000/svg" viewBox="0 0 512 512">
  <defs>
    <linearGradient id="bg" x1="0" y1="0" x2="1" y2="1">
      <stop stop-color="#1d2b47"/>
      <stop offset="1" stop-color="#09101d"/>
    </linearGradient>
    <linearGradient id="gold" x1="0" y1="0" x2="1" y2="1">
      <stop stop-color="#ffd68c"/>
      <stop offset="1" stop-color="#dc921f"/>
    </linearGradient>
  </defs>
  <rect width="512" height="512" rx="118" fill="url(#bg)"/>
  <path d="M111 181h68v150h-68zM333 181h68v150h-68zM179 221h154v70H179z" fill="url(#gold)"/>
  <path d="M83 207h28v98H83c-13 0-23-10-23-23v-52c0-13 10-23 23-23ZM429 207h-28v98h28c13 0 23-10 23-23v-52c0-13-10-23-23-23Z" fill="#f0b44d"/>
  <circle cx="256" cy="256" r="35" fill="#111b2f"/>
  <path d="M241 241h30v30h-30z" fill="#ffd68c"/>
</svg>
